<svg xmlns:xlink="http://www.w3.org/1999/xlink" xmlns="http://www.w3.org/2000/svg" fill="currentColor" fill-rule="evenodd" height="128" viewBox="0 0 24 24" width="128" fit="" preserveAspectRatio="xMidYMid meet" focusable="false"><path d="M12 2.084V5.44a2.56 2.56 0 0 1 0 5.12V12c1.335 0 4 .824 4 2.46v1.265c-.065.094-.126.19-.195.283A7.433 7.433 0 0 1 12 18.738v2.827a11.062 11.062 0 0 0 8-10.667v-5.48l-8-3.334z" opacity=".8" fill="#3367D6"></path><path d="M12 2.084V5.44a2.56 2.56 0 0 0 0 5.12V12c-1.335 0-4 .824-4 2.46v1.265c.065.094.126.19.195.283A7.433 7.433 0 0 0 12 18.738v2.827a11.062 11.062 0 0 1-8-10.667v-5.48l8-3.334z" fill="#3367D6"></path></svg>